<?xml version="1.0" encoding="utf-8"?>
<!-- Generator: Adobe Illustrator 23.0.3, SVG Export Plug-In . SVG Version: 6.00 Build 0)  -->
<svg version="1.1" id="Layer_1" xmlns="http://www.w3.org/2000/svg" xmlns:xlink="http://www.w3.org/1999/xlink" x="0px" y="0px"
	 viewBox="0 0 512 464.5" style="enable-background:new 0 0 512 464.5;" xml:space="preserve">
<style type="text/css">
	.st0{fill:#707487;}
	.st1{fill:#D7DEED;}
	.st2{fill:#AFB9D2;}
	.st3{fill:#F2F2F2;}
	.st4{fill:#00D2F0;}
	.st5{fill:#EFF2FA;}
	.st6{fill:#FFFFFF;}
	.st7{fill:#00FFBE;}
	.st8{fill:#00B9DC;}
</style>
<g>
	<path class="st0" d="M53,368.8H35.3c-4.9,0-8.8-4-8.8-8.8v-18.8h35.3V360C61.8,364.9,57.8,368.8,53,368.8z"/>
	<path class="st0" d="M476.7,368.8H459c-4.9,0-8.8-4-8.8-8.8v-17.6h35.3V360C485.5,364.9,481.6,368.8,476.7,368.8z"/>
</g>
<path class="st1" d="M485.5,351.2h-459C11.9,351.2,0,339.3,0,324.7V148.1c0-14.6,11.9-26.5,26.5-26.5h459
	c14.6,0,26.5,11.9,26.5,26.5v176.5C512,339.3,500.1,351.2,485.5,351.2z"/>
<path class="st2" d="M0,271.7v53c0,14.6,11.9,26.5,26.5,26.5h459c14.6,0,26.5-11.9,26.5-26.5v-53H0z"/>
<rect x="398" y="324" class="st3" width="31" height="34"/>
<rect x="84" y="327" class="st3" width="34" height="34"/>
<path class="st3" d="M412.8,329.5H89.2c-8.9,0-16.2-7.9-16.2-17.6v-44.1c0-9.8,7.2-17.6,16.2-17.6h323.6c8.9,0,16.2,7.9,16.2,17.6
	v44.1C429,321.6,421.8,329.5,412.8,329.5z"/>
<g>
	<path d="M448.7,75.3c0-8.6-3.7-16.7-9.8-22.4c0.3-0.3,0.6-0.6,0.9-0.9c5.7-5.7,9-13.5,9-21.6c0-8-3.3-15.9-8.9-21.6
		C434.1,3.3,426.3,0,418.2,0c-8,0-15.9,3.3-21.6,8.9c-0.5,0.6-1.1,1.1-1.6,1.7C389.4,4,381,0,371.9,0c-9,0-17.5,4.1-23.1,10.7
		C343.1,4,334.7,0,325.7,0c-9,0-17.5,4.1-23.1,10.7C296.8,4,288.4,0,279.4,0c-9,0-17.5,4.1-23.1,10.7C250.5,4,242.1,0,233.1,0
		c-9,0-17.5,4.1-23.1,10.7C204.3,4,195.8,0,186.8,0c-9,0-17.5,4.1-23.1,10.7C158,4,149.6,0,140.5,0c-9,0-17.4,4-23.1,10.7
		c-0.5-0.6-1-1.2-1.6-1.7C110.1,3.3,102.3,0,94.2,0S78.3,3.3,72.7,8.9c-5.7,5.7-8.9,13.5-8.9,21.6c0,8,3.3,15.9,9,21.6
		c0.3,0.3,0.6,0.6,0.9,0.9c-6.1,5.7-9.8,13.7-9.8,22.4c0,8.7,3.7,16.8,9.9,22.4c-6.2,5.7-9.9,13.7-9.9,22.4s3.7,16.8,9.9,22.4
		c-6.2,5.7-9.9,13.8-9.9,22.4s3.7,16.8,9.9,22.4c-6.2,5.7-9.9,13.8-9.9,22.4c0,8.7,3.7,16.8,9.9,22.4c-6.1,5.7-9.9,13.8-9.9,22.4
		s3.7,16.8,9.9,22.4c-6.1,5.7-9.9,13.8-9.9,22.4c0,8.7,3.7,16.8,9.9,22.4c-6.1,5.7-9.9,13.8-9.9,22.4c0,8.7,3.7,16.7,9.9,22.4
		c-6.1,5.7-9.9,13.8-9.9,22.4c0,8.7,3.7,16.7,9.8,22.4c-0.3,0.3-0.6,0.6-0.9,0.9c-5.7,5.7-8.9,13.5-8.9,21.6s3.3,15.9,8.9,21.6
		c5.7,5.7,13.5,8.9,21.6,8.9c8,0,15.9-3.3,21.6-8.9c0.5-0.5,1.1-1.1,1.6-1.7c5.7,6.6,14.1,10.7,23.1,10.7c9,0,17.5-4,23.1-10.7
		c5.7,6.6,14.1,10.7,23.1,10.7c9,0,17.5-4,23.1-10.7c5.7,6.6,14.1,10.7,23.1,10.7c9,0,17.5-4,23.2-10.7c5.7,6.6,14.1,10.7,23.1,10.7
		s17.5-4,23.1-10.7c5.7,6.6,14.1,10.7,23.1,10.7c9,0,17.5-4,23.1-10.7c5.7,6.6,14.1,10.7,23.2,10.7c9,0,17.4-4,23.1-10.7
		c0.5,0.6,1,1.2,1.6,1.7c5.7,5.7,13.5,8.9,21.6,8.9c8,0,15.9-3.3,21.5-8.9c5.7-5.7,9-13.5,9-21.6c0-8-3.3-15.9-8.9-21.6
		c-0.3-0.3-0.6-0.6-0.9-0.9c6.1-5.7,9.8-13.7,9.8-22.4c0-8.7-3.7-16.8-9.9-22.4c6.1-5.7,9.9-13.8,9.9-22.4s-3.7-16.8-9.9-22.4
		c6.1-5.7,9.9-13.8,9.9-22.4s-3.7-16.8-9.9-22.4c6.2-5.7,9.9-13.8,9.9-22.4s-3.7-16.7-9.9-22.4c6.2-5.7,9.9-13.8,9.9-22.4
		s-3.7-16.8-9.9-22.4c6.1-5.7,9.9-13.8,9.9-22.4c0-8.7-3.7-16.8-9.9-22.4c6.1-5.7,9.9-13.8,9.9-22.4c0-8.7-3.7-16.8-9.9-22.4
		C445,92.1,448.7,84,448.7,75.3z M421.8,65.5c4.1,1.5,6.9,5.5,6.9,9.9s-2.8,8.3-6.9,9.9c-4,1.4-6.6,5.2-6.6,9.4v6.3
		c0,4.2,2.6,8,6.6,9.4c4.1,1.5,6.9,5.5,6.9,9.9s-2.8,8.4-6.9,9.9c-4,1.4-6.6,5.2-6.6,9.4v6.3c0,4.2,2.6,8,6.6,9.4
		c4.1,1.5,6.9,5.5,6.9,9.9s-2.8,8.3-6.9,9.9c-4,1.4-6.6,5.2-6.6,9.4v6.3c0,4.2,2.6,8,6.6,9.4c4.1,1.5,6.9,5.5,6.9,9.9
		s-2.8,8.4-6.9,9.9c-4,1.4-6.6,5.2-6.6,9.4v6.3c0,4.2,2.6,8,6.6,9.4c4.1,1.5,6.9,5.5,6.9,9.8c0,4.4-2.8,8.4-6.9,9.9
		c-4,1.4-6.6,5.2-6.6,9.4v6.3c0,4.2,2.6,8,6.6,9.4c4.1,1.5,6.9,5.5,6.9,9.9s-2.8,8.3-6.9,9.9c-4,1.4-6.6,5.2-6.6,9.4v6.3
		c0,4.2,2.6,8,6.6,9.4c4.1,1.5,6.9,5.5,6.9,9.9s-2.8,8.3-6.9,9.9c-4,1.4-6.6,5.2-6.6,9.4v6.3c0,4.2,2.6,8,6.6,9.4
		c4.1,1.5,6.9,5.5,6.9,9.8s-2.8,8.3-6.9,9.8c-4,1.4-6.6,5.2-6.6,9.4v6.3c0,4.2,2.6,8,6.6,9.4c1.5,0.5,2.8,1.4,3.8,2.4
		c2,2,3.1,4.7,3.1,7.4s-1.1,5.5-3.1,7.4c-2,2-4.7,3.1-7.4,3.1c-2.8,0-5.5-1.1-7.4-3.1c-1-1-1.9-2.4-2.4-3.8c-1.4-4-5.2-6.6-9.4-6.6
		h-7.8c-4.2,0-8,2.6-9.4,6.6c-1.5,4.1-5.5,6.9-9.8,6.9c-4.4,0-8.3-2.8-9.9-6.9c-1.4-4-5.2-6.6-9.4-6.6h-7.8c-4.2,0-8,2.6-9.4,6.6
		c-1.5,4.1-5.5,6.9-9.8,6.9s-8.3-2.8-9.8-6.9c-1.4-4-5.2-6.6-9.4-6.6h-7.8c-4.2,0-8,2.6-9.4,6.6c-1.5,4.1-5.5,6.9-9.8,6.9
		c-4.4,0-8.3-2.8-9.8-6.9c-1.4-4-5.2-6.6-9.4-6.6h-7.8c-4.2,0-8,2.6-9.4,6.6c-1.5,4.1-5.5,6.9-9.9,6.9s-8.3-2.8-9.8-6.9
		c-1.4-4-5.2-6.6-9.4-6.6H206c-4.2,0-8,2.6-9.4,6.6c-1.5,4.1-5.5,6.9-9.8,6.9c-4.4,0-8.3-2.8-9.8-6.9c-1.4-4-5.2-6.6-9.4-6.6h-7.8
		c-4.2,0-8,2.6-9.4,6.6c-1.5,4.1-5.5,6.9-9.8,6.9s-8.3-2.8-9.8-6.9c-1.4-4-5.2-6.6-9.4-6.6h-7.8c-4.2,0-8,2.6-9.4,6.6
		c-0.5,1.5-1.4,2.8-2.4,3.9c-1.9,1.9-4.7,3.1-7.4,3.1c-2.7,0-5.5-1.2-7.4-3.1c-2-2-3.1-4.7-3.1-7.4s1.1-5.5,3.1-7.4
		c1-1,2.4-1.9,3.8-2.4c4-1.4,6.6-5.2,6.6-9.4v-6.3c0-4.2-2.6-8-6.6-9.4c-4.1-1.5-6.9-5.5-6.9-9.8c0-4.4,2.8-8.3,6.9-9.8
		c4-1.4,6.6-5.2,6.6-9.4v-6.3c0-4.2-2.6-8-6.6-9.4c-4.1-1.5-6.9-5.5-6.9-9.9s2.8-8.4,6.9-9.9c4-1.4,6.6-5.2,6.6-9.4v-6.3
		c0-4.2-2.6-8-6.6-9.4c-4.1-1.5-6.9-5.5-6.9-9.9s2.8-8.4,6.9-9.9c4-1.4,6.6-5.2,6.6-9.4v-6.3c0-4.2-2.6-8-6.6-9.4
		c-4.1-1.5-6.9-5.5-6.9-9.9s2.8-8.4,6.9-9.9c4-1.4,6.6-5.2,6.6-9.4v-6.3c0-4.2-2.6-8-6.6-9.4c-4.1-1.5-6.9-5.5-6.9-9.9
		s2.8-8.4,6.9-9.9c4-1.4,6.6-5.2,6.6-9.4v-6.3c0-4.2-2.6-8-6.6-9.4c-4.1-1.5-6.9-5.5-6.9-9.9s2.8-8.3,6.9-9.9c4-1.4,6.6-5.2,6.6-9.4
		v-6.3c0-4.2-2.6-8-6.6-9.4c-4.1-1.5-6.9-5.5-6.9-9.9s2.8-8.4,6.9-9.9c4-1.4,6.6-5.2,6.6-9.4v-6.3c0-4.2-2.6-8-6.6-9.4
		c-4.1-1.5-6.9-5.5-6.9-9.9c0-4.4,2.8-8.4,6.9-9.9c4-1.4,6.6-5.2,6.6-9.4v-6.4c0-4.2-2.6-7.9-6.6-9.4c-1.5-0.5-2.8-1.4-3.8-2.4
		c-2-2-3.1-4.7-3.1-7.4s1.1-5.5,3.1-7.4c1.9-1.9,4.7-3.1,7.4-3.1c2.7,0,5.5,1.1,7.4,3.1c1,1,1.9,2.4,2.4,3.9
		c1.4,3.9,5.2,6.6,9.4,6.6h7.8c4.2,0,8-2.6,9.4-6.6c1.5-4.1,5.5-6.9,9.8-6.9s8.3,2.8,9.8,6.9c1.4,3.9,5.2,6.6,9.4,6.6h7.8
		c4.2,0,8-2.6,9.4-6.6c1.5-4.1,5.5-6.9,9.8-6.9s8.3,2.8,9.8,6.9c1.4,3.9,5.2,6.6,9.4,6.6h7.8c4.2,0,8-2.6,9.4-6.6
		c1.5-4.1,5.5-6.9,9.8-6.9c4.4,0,8.3,2.8,9.9,6.9c1.4,3.9,5.2,6.6,9.4,6.6h7.8c4.2,0,8-2.6,9.4-6.6c1.5-4.1,5.5-6.9,9.8-6.9
		s8.3,2.8,9.8,6.9c1.4,3.9,5.2,6.6,9.4,6.6h7.8c4.2,0,8-2.6,9.4-6.6c1.5-4.1,5.5-6.9,9.8-6.9s8.3,2.8,9.8,6.9
		c1.4,3.9,5.2,6.6,9.4,6.6h7.8c4.2,0,8-2.6,9.4-6.6c1.5-4.1,5.5-6.9,9.8-6.9s8.3,2.8,9.8,6.9c1.4,3.9,5.2,6.6,9.4,6.6h7.8
		c4.2,0,8-2.6,9.4-6.6c0.5-1.5,1.4-2.8,2.4-3.8c2-2,4.7-3.1,7.4-3.1c2.7,0,5.5,1.1,7.4,3.1c2,2,3.1,4.7,3.1,7.4s-1.1,5.5-3.1,7.4
		c-1,1-2.4,1.9-3.8,2.4c-4,1.4-6.6,5.2-6.6,9.4v6.4C415.2,60.3,417.9,64,421.8,65.5z"/>
	<path d="M153.6,392V262.5h208.1V392H153.6z M386.2,52.5h-260c-5.5,0-10,4.5-10,10V402c0,5.5,4.5,10,10,10h260c5.5,0,10-4.5,10-10
		V62.5C396.2,57,391.8,52.5,386.2,52.5z M376.2,72.5v170h-38.7c-4.9-38-37.5-67.5-76.8-67.5s-71.9,29.5-76.8,67.5h-47.7v-170H376.2z
		 M317.3,242.5H204.1c4.8-27,28.3-47.5,56.6-47.5C289,195,312.6,215.5,317.3,242.5z"/>
	<path d="M314.7,274.7H203.4c-5.5,0-10,4.5-10,10s4.5,10,10,10h111.3c5.5,0,10-4.5,10-10S320.3,274.7,314.7,274.7z"/>
	<path d="M296.7,307h-75.3c-5.5,0-10,4.5-10,10s4.5,10,10,10h75.3c5.5,0,10-4.5,10-10S302.3,307,296.7,307z"/>
	<path d="M170.1,118.3c1.9,1.9,4.4,2.9,7.1,2.9s5.2-1,7.1-2.9l12.7-12.7c3.9-3.9,3.9-10.2,0-14.1c-3.9-3.9-10.2-3.9-14.1,0l-5.7,5.7
		l-5.7-5.7c-3.9-3.9-10.2-3.9-14.1,0c-3.9,3.9-3.9,10.2,0,14.1L170.1,118.3z"/>
</g>
<path class="st4" d="M61.8,121.6l2,88.6l17.7,17.6l351.1-18c9.8,0,14.5,17.8,14.5,8.1l3.2-96.4"/>
<path class="st5" d="M372.3,395.3H142.7c-4.2,0-7.7-4-7.7-8.8v-97.1h245v97.1C380,391.4,376.6,395.3,372.3,395.3z"/>
<circle class="st6" cx="397.2" cy="165.8" r="17.7"/>
<circle class="st7" cx="353.1" cy="165.8" r="13.2"/>
<path class="st8" d="M317.8,174.6h-44.1c-4.9,0-8.8-4-8.8-8.8c0-4.9,4-8.8,8.8-8.8h44.1c4.9,0,8.8,4,8.8,8.8
	S322.7,174.6,317.8,174.6z"/>
<path class="st0" d="M450.2,289.4H61.8v-37.6l17.7-17.6l353.1-6l17.7,17.6L450.2,289.4L450.2,289.4z"/>
<path class="st5" d="M372.3,122H142.7c-4.2,0-7.7-2.1-7.7-4.6v-51h245v51C380,119.9,376.6,122,372.3,122z"/>
<path class="st1" d="M435.3,254H76.7c-11.4,0-20.7-2.3-20.7-5.1v-33.9c0-2.8,9.3-5.1,20.7-5.1h358.6c11.4,0,20.7,2.3,20.7,5.1v33.9
	C456,251.7,446.7,254,435.3,254z"/>
</svg>
