<?xml version="1.0" encoding="utf-8"?>
<!-- Generator: Adobe Illustrator 23.0.3, SVG Export Plug-In . SVG Version: 6.00 Build 0)  -->
<svg version="1.1" id="Layer_1" xmlns="http://www.w3.org/2000/svg" xmlns:xlink="http://www.w3.org/1999/xlink" x="0px" y="0px"
	 viewBox="0 0 1366 768" style="enable-background:new 0 0 1366 768;" xml:space="preserve">
<style type="text/css">
	.st0{fill:#707487;}
	.st1{fill:#D7DEED;}
	.st2{fill:#AFB9D2;}
	.st3{fill:#F2F2F2;}
	.st4{fill:#00D2F0;}
	.st5{fill:#EFF2FA;}
	.st6{fill:#FFFFFF;}
	.st7{fill:#00FFBE;}
	.st8{fill:#00B9DC;}
</style>
<g>
	<path class="st0" d="M505.97,519.83h-17.66c-4.88,0-8.83-3.95-8.83-8.83v-18.76h35.31V511
		C514.79,515.88,510.84,519.83,505.97,519.83z"/>
	<path class="st0" d="M929.69,519.83h-17.65c-4.88,0-8.83-3.95-8.83-8.83v-17.65h35.31V511
		C938.52,515.88,934.57,519.83,929.69,519.83z"/>
</g>
<path class="st1" d="M938.52,502.17H479.48c-14.63,0-26.48-11.86-26.48-26.48V299.14c0-14.63,11.86-26.48,26.48-26.48h459.03
	c14.63,0,26.48,11.86,26.48,26.48v176.55C965,490.32,953.14,502.17,938.52,502.17z"/>
<path class="st2" d="M453,422.72v52.97c0,14.63,11.86,26.48,26.48,26.48h459.03c14.63,0,26.48-11.86,26.48-26.48v-52.97H453z"/>
<rect x="851" y="475" class="st3" width="31" height="34"/>
<rect x="537" y="478" class="st3" width="34" height="34"/>
<path class="st3" d="M865.82,480.52H542.18c-8.94,0-16.18-7.9-16.18-17.65v-44.14c0-9.75,7.24-17.65,16.18-17.65h323.64
	c8.94,0,16.18,7.9,16.18,17.65v44.14C882,472.61,874.76,480.52,865.82,480.52z"/>
<g>
	<path d="M901.73,226.33c0-8.65-3.71-16.73-9.84-22.4c0.3-0.28,0.6-0.57,0.9-0.86c5.69-5.67,8.95-13.53,8.95-21.57
		c0-8.03-3.26-15.89-8.94-21.57c-5.67-5.67-13.53-8.93-21.56-8.93c-8.02,0-15.88,3.25-21.58,8.94c-0.55,0.55-1.08,1.13-1.59,1.72
		c-5.69-6.62-14.1-10.66-23.13-10.66c-9.04,0-17.45,4.05-23.14,10.68c-5.69-6.63-14.1-10.68-23.14-10.68
		c-9.04,0-17.45,4.05-23.14,10.68c-5.69-6.63-14.1-10.68-23.14-10.68c-9.04,0-17.45,4.05-23.14,10.68
		c-5.69-6.63-14.11-10.68-23.15-10.68c-9.04,0-17.45,4.05-23.14,10.68c-5.69-6.63-14.1-10.68-23.14-10.68
		c-9.04,0-17.45,4.05-23.14,10.68c-5.69-6.63-14.1-10.68-23.14-10.68c-9.03,0-17.43,4.04-23.13,10.66c-0.51-0.6-1.04-1.18-1.6-1.73
		c-5.67-5.67-13.54-8.93-21.57-8.93c-8.03,0-15.89,3.26-21.56,8.93c-5.68,5.68-8.94,13.54-8.94,21.57c0,8.03,3.26,15.89,8.95,21.58
		c0.29,0.29,0.59,0.57,0.89,0.85c-6.13,5.67-9.84,13.74-9.84,22.4c0,8.66,3.72,16.75,9.86,22.41c-6.15,5.67-9.86,13.75-9.86,22.42
		s3.72,16.75,9.86,22.42c-6.15,5.67-9.86,13.75-9.86,22.42s3.72,16.75,9.86,22.42c-6.15,5.67-9.86,13.75-9.86,22.42
		c0,8.66,3.72,16.75,9.86,22.42c-6.14,5.67-9.86,13.76-9.86,22.42c0,8.66,3.72,16.75,9.86,22.41c-6.14,5.67-9.86,13.75-9.86,22.42
		c0,8.66,3.72,16.75,9.86,22.41c-6.14,5.67-9.86,13.75-9.86,22.42c0,8.66,3.72,16.75,9.86,22.42c-6.14,5.67-9.86,13.75-9.86,22.41
		c0,8.65,3.71,16.73,9.84,22.4c-0.31,0.28-0.61,0.57-0.9,0.86c-5.68,5.68-8.94,13.54-8.94,21.57c0,8.03,3.26,15.89,8.94,21.57
		c5.67,5.67,13.53,8.93,21.56,8.93c8.03,0,15.9-3.25,21.57-8.93c0.55-0.55,1.08-1.13,1.59-1.73c5.69,6.62,14.1,10.66,23.13,10.66
		c9.04,0,17.45-4.05,23.14-10.67c5.69,6.63,14.1,10.67,23.14,10.67c9.04,0,17.45-4.05,23.14-10.68c5.69,6.63,14.1,10.68,23.14,10.68
		c9.04,0,17.46-4.05,23.15-10.68c5.69,6.63,14.1,10.68,23.14,10.68s17.45-4.05,23.14-10.68c5.69,6.63,14.1,10.68,23.14,10.68
		c9.04,0,17.45-4.05,23.14-10.68c5.69,6.63,14.11,10.68,23.15,10.68c9.03,0,17.43-4.04,23.12-10.66c0.51,0.6,1.03,1.17,1.59,1.72
		c5.68,5.68,13.54,8.94,21.57,8.94c8.04,0,15.9-3.26,21.55-8.93c5.69-5.67,8.95-13.53,8.95-21.57c0-8.03-3.26-15.89-8.94-21.57
		c-0.29-0.29-0.6-0.58-0.9-0.86c6.13-5.67,9.84-13.74,9.84-22.4c0-8.66-3.72-16.75-9.86-22.42c6.14-5.67,9.86-13.75,9.86-22.41
		s-3.72-16.75-9.86-22.42c6.14-5.67,9.86-13.75,9.86-22.42c0-8.67-3.72-16.75-9.86-22.42c6.15-5.67,9.86-13.76,9.86-22.42
		c0-8.66-3.72-16.74-9.86-22.41c6.15-5.67,9.86-13.76,9.86-22.42c0-8.66-3.72-16.75-9.86-22.42c6.14-5.67,9.86-13.75,9.86-22.42
		c0-8.66-3.72-16.75-9.86-22.41c6.14-5.67,9.86-13.75,9.86-22.42c0-8.66-3.72-16.75-9.86-22.42
		C898.02,243.08,901.73,234.99,901.73,226.33z M874.81,216.48c4.14,1.51,6.92,5.46,6.92,9.85c0,4.39-2.78,8.34-6.92,9.85
		c-3.95,1.44-6.58,5.19-6.58,9.4v6.33c0,4.2,2.63,7.96,6.58,9.4c4.14,1.51,6.92,5.46,6.92,9.85c0,4.39-2.78,8.35-6.92,9.85
		c-3.95,1.44-6.58,5.19-6.58,9.4v6.33c0,4.2,2.63,7.96,6.58,9.4c4.14,1.51,6.92,5.46,6.92,9.85c0,4.39-2.78,8.34-6.92,9.85
		c-3.95,1.44-6.58,5.19-6.58,9.4v6.33c0,4.2,2.63,7.96,6.58,9.4c4.14,1.51,6.92,5.46,6.92,9.85c0,4.39-2.78,8.35-6.92,9.85
		c-3.95,1.44-6.58,5.19-6.58,9.4v6.34c0,4.21,2.63,7.96,6.58,9.4c4.14,1.5,6.92,5.46,6.92,9.84c0,4.39-2.78,8.35-6.92,9.85
		c-3.95,1.44-6.58,5.19-6.58,9.4v6.34c0,4.2,2.63,7.96,6.58,9.4c4.14,1.51,6.92,5.46,6.92,9.85c0,4.39-2.78,8.34-6.92,9.85
		c-3.95,1.44-6.58,5.19-6.58,9.4v6.33c0,4.2,2.63,7.96,6.58,9.4c4.14,1.51,6.92,5.46,6.92,9.85s-2.78,8.34-6.92,9.85
		c-3.95,1.44-6.58,5.19-6.58,9.4v6.33c0,4.2,2.63,7.96,6.58,9.4c4.14,1.51,6.92,5.47,6.92,9.85s-2.78,8.34-6.92,9.85
		c-3.95,1.44-6.58,5.19-6.58,9.4v6.35c0,4.2,2.63,7.96,6.57,9.4c1.48,0.54,2.81,1.37,3.85,2.41c1.96,1.96,3.08,4.67,3.08,7.43
		c0,2.76-1.12,5.46-3.09,7.43c-1.95,1.95-4.65,3.07-7.41,3.07c-2.76,0-5.47-1.12-7.43-3.08c-1.03-1.03-1.87-2.36-2.41-3.84
		c-1.44-3.95-5.19-6.57-9.39-6.57h-7.8c-4.2,0-7.96,2.63-9.4,6.58c-1.51,4.14-5.47,6.92-9.85,6.92c-4.39,0-8.35-2.78-9.86-6.92
		c-1.44-3.95-5.19-6.58-9.4-6.58h-7.79c-4.2,0-7.96,2.63-9.4,6.58c-1.51,4.14-5.47,6.92-9.85,6.92s-8.34-2.78-9.85-6.92
		c-1.44-3.95-5.19-6.58-9.4-6.58h-7.79c-4.2,0-7.96,2.63-9.4,6.58c-1.51,4.14-5.47,6.92-9.85,6.92c-4.39,0-8.34-2.78-9.85-6.92
		c-1.44-3.95-5.19-6.58-9.4-6.58h-7.79c-4.2,0-7.96,2.63-9.4,6.58c-1.51,4.14-5.47,6.92-9.86,6.92c-4.39,0-8.34-2.78-9.85-6.92
		c-1.44-3.95-5.19-6.58-9.4-6.58h-7.79c-4.2,0-7.96,2.63-9.4,6.58c-1.51,4.14-5.47,6.92-9.85,6.92c-4.39,0-8.34-2.78-9.85-6.92
		c-1.44-3.95-5.19-6.58-9.4-6.58h-7.79c-4.2,0-7.96,2.63-9.4,6.58c-1.51,4.14-5.47,6.92-9.85,6.92s-8.34-2.78-9.85-6.92
		c-1.44-3.95-5.19-6.58-9.4-6.58h-7.8c-4.2,0-7.95,2.63-9.4,6.57c-0.54,1.48-1.38,2.82-2.41,3.86c-1.92,1.92-4.7,3.07-7.43,3.07
		c-2.72,0-5.5-1.15-7.42-3.07c-1.96-1.96-3.08-4.67-3.08-7.43c0-2.76,1.12-5.47,3.08-7.43c1.03-1.03,2.36-1.87,3.85-2.41
		c3.95-1.44,6.57-5.19,6.57-9.4v-6.35c0-4.2-2.63-7.96-6.58-9.4c-4.14-1.51-6.92-5.47-6.92-9.85c0-4.39,2.78-8.34,6.92-9.85
		c3.95-1.44,6.58-5.19,6.58-9.4v-6.33c0-4.21-2.63-7.96-6.58-9.4c-4.14-1.51-6.92-5.46-6.92-9.85c0-4.39,2.78-8.35,6.92-9.85
		c3.95-1.44,6.58-5.19,6.58-9.4v-6.33c0-4.2-2.63-7.96-6.58-9.4c-4.14-1.51-6.92-5.46-6.92-9.85c0-4.39,2.78-8.35,6.92-9.85
		c3.95-1.44,6.58-5.19,6.58-9.4v-6.33c0-4.2-2.63-7.96-6.58-9.4c-4.14-1.51-6.92-5.46-6.92-9.85c0-4.39,2.78-8.36,6.92-9.86
		c3.95-1.44,6.58-5.19,6.58-9.4v-6.33c0-4.21-2.63-7.96-6.58-9.4c-4.14-1.51-6.92-5.46-6.92-9.85c0-4.39,2.78-8.35,6.92-9.85
		c3.95-1.44,6.58-5.19,6.58-9.4v-6.33c0-4.21-2.63-7.96-6.58-9.4c-4.14-1.51-6.92-5.46-6.92-9.85c0-4.39,2.78-8.34,6.92-9.85
		c3.95-1.44,6.58-5.19,6.58-9.4v-6.33c0-4.21-2.63-7.96-6.58-9.4c-4.14-1.51-6.92-5.46-6.92-9.85c0-4.39,2.78-8.35,6.92-9.85
		c3.95-1.44,6.58-5.19,6.58-9.4v-6.33c0-4.21-2.63-7.96-6.58-9.4c-4.14-1.51-6.92-5.47-6.92-9.85c0-4.39,2.78-8.35,6.92-9.85
		c3.95-1.44,6.58-5.19,6.58-9.4v-6.36c0-4.2-2.63-7.95-6.57-9.39c-1.48-0.54-2.82-1.38-3.85-2.41c-1.96-1.96-3.08-4.67-3.08-7.43
		c0-2.76,1.12-5.47,3.08-7.43c1.92-1.92,4.7-3.07,7.42-3.07c2.73,0,5.51,1.15,7.43,3.07c1.04,1.04,1.88,2.38,2.42,3.86
		c1.44,3.95,5.19,6.57,9.39,6.57h7.8c4.2,0,7.96-2.63,9.4-6.58c1.51-4.14,5.47-6.92,9.85-6.92s8.34,2.78,9.85,6.92
		c1.44,3.95,5.19,6.58,9.4,6.58h7.79c4.2,0,7.96-2.63,9.4-6.58c1.51-4.14,5.47-6.92,9.85-6.92c4.38,0,8.34,2.78,9.85,6.92
		c1.44,3.95,5.19,6.58,9.4,6.58h7.79c4.21,0,7.96-2.63,9.4-6.58c1.5-4.14,5.46-6.92,9.84-6.92c4.39,0,8.35,2.78,9.86,6.92
		c1.44,3.95,5.19,6.58,9.4,6.58h7.79c4.2,0,7.96-2.63,9.4-6.58c1.51-4.14,5.47-6.92,9.85-6.92c4.38,0,8.34,2.78,9.85,6.92
		c1.44,3.95,5.19,6.58,9.4,6.58h7.79c4.2,0,7.96-2.63,9.4-6.58c1.51-4.14,5.47-6.92,9.85-6.92s8.34,2.78,9.85,6.92
		c1.44,3.95,5.19,6.58,9.4,6.58h7.79c4.2,0,7.96-2.63,9.4-6.58c1.51-4.14,5.47-6.92,9.85-6.92s8.34,2.78,9.85,6.92
		c1.44,3.95,5.19,6.58,9.4,6.58H852c4.2,0,7.96-2.63,9.4-6.58c0.54-1.49,1.38-2.82,2.4-3.84c1.96-1.96,4.67-3.08,7.44-3.08
		c2.72,0,5.49,1.15,7.42,3.07c1.96,1.96,3.08,4.67,3.08,7.43c0,2.76-1.12,5.46-3.09,7.43c-1.03,1.04-2.36,1.87-3.84,2.41
		c-3.95,1.44-6.57,5.19-6.57,9.39v6.35C868.23,211.29,870.86,215.04,874.81,216.48z"/>
	<path d="M606.64,542.98V413.49h208.14v129.49H606.64z M839.23,203.5H579.25c-5.52,0-10,4.48-10,10v339.48c0,5.52,4.48,10,10,10
		h259.98c5.52,0,10-4.48,10-10V213.5C849.23,207.98,844.76,203.5,839.23,203.5z M829.23,223.5v169.99h-38.66
		c-4.92-38.02-37.49-67.5-76.83-67.5c-39.34,0-71.91,29.47-76.83,67.5h-47.66V223.5H829.23z M770.35,393.49H657.13
		c4.75-26.95,28.32-47.5,56.61-47.5C742.03,345.99,765.6,366.54,770.35,393.49z"/>
	<path d="M767.74,425.74H656.42c-5.52,0-10,4.48-10,10s4.48,10,10,10h111.32c5.52,0,10-4.48,10-10S773.26,425.74,767.74,425.74z"/>
	<path d="M749.74,457.99h-75.32c-5.52,0-10,4.48-10,10s4.48,10,10,10h75.32c5.52,0,10-4.48,10-10S755.26,457.99,749.74,457.99z"/>
	<path d="M623.13,269.27c1.88,1.88,4.42,2.93,7.07,2.93s5.2-1.05,7.07-2.93L650,256.54c3.9-3.91,3.9-10.24,0-14.14
		c-3.91-3.9-10.24-3.9-14.14,0l-5.66,5.66l-5.66-5.66c-3.91-3.9-10.24-3.9-14.14,0c-3.91,3.91-3.91,10.24,0,14.14L623.13,269.27z"/>
</g>
<path class="st4" d="M514.79,272.65l2,88.62l17.66,17.65l351.1-18c9.75,0,14.45,17.82,14.45,8.07l3.21-96.35"/>
<path class="st5" d="M825.34,546.31H595.66c-4.23,0-7.66-3.95-7.66-8.83v-97.1h245v97.1C833,542.36,829.57,546.31,825.34,546.31z"/>
<circle class="st6" cx="850.24" cy="316.79" r="17.65"/>
<circle class="st7" cx="806.1" cy="316.79" r="13.24"/>
<path class="st8" d="M770.79,325.62h-44.14c-4.88,0-8.83-3.95-8.83-8.83c0-4.88,3.95-8.83,8.83-8.83h44.14
	c4.88,0,8.83,3.95,8.83,8.83S775.67,325.62,770.79,325.62z"/>
<path class="st0" d="M903.21,440.38H514.79v-37.65l17.66-17.65l353.1-6l17.65,17.65L903.21,440.38L903.21,440.38z"/>
<path class="st5" d="M825.34,273H595.66c-4.23,0-7.66-2.08-7.66-4.64v-50.99h245v50.99C833,270.92,829.57,273,825.34,273z"/>
<path class="st1" d="M888.31,405H529.69c-11.43,0-20.69-2.27-20.69-5.08v-33.85c0-2.8,9.26-5.08,20.69-5.08h358.62
	c11.43,0,20.69,2.27,20.69,5.08v33.85C909,402.73,899.74,405,888.31,405z"/>
</svg>
